<svg xmlns="http://www.w3.org/2000/svg" width="600" height="500" viewBox="0 0 600 500">
  <!-- Background gradient -->
  <defs>
    <linearGradient id="bg-gradient" x1="0%" y1="0%" x2="100%" y2="100%">
      <stop offset="0%" stop-color="#6c63ff" stop-opacity="0.2"/>
      <stop offset="100%" stop-color="#ff6b6b" stop-opacity="0.2"/>
    </linearGradient>
    <linearGradient id="avatar-gradient" x1="0%" y1="0%" x2="100%" y2="100%">
      <stop offset="0%" stop-color="#6c63ff"/>
      <stop offset="100%" stop-color="#5046e5"/>
    </linearGradient>
    <linearGradient id="dress-gradient" x1="0%" y1="0%" x2="100%" y2="100%">
      <stop offset="0%" stop-color="#ff6b6b"/>
      <stop offset="100%" stop-color="#e54b4b"/>
    </linearGradient>
    <filter id="shadow" x="-20%" y="-20%" width="140%" height="140%">
      <feGaussianBlur in="SourceAlpha" stdDeviation="10"/>
      <feOffset dx="0" dy="10" result="offsetblur"/>
      <feComponentTransfer>
        <feFuncA type="linear" slope="0.3"/>
      </feComponentTransfer>
      <feMerge>
        <feMergeNode/>
        <feMergeNode in="SourceGraphic"/>
      </feMerge>
    </filter>
  </defs>
  
  <!-- Background shape -->
  <rect x="50" y="50" width="500" height="400" rx="20" ry="20" fill="url(#bg-gradient)" filter="url(#shadow)"/>
  
  <!-- 3D Avatar outline -->
  <g transform="translate(300, 250)" filter="url(#shadow)">
    <!-- Avatar body -->
    <ellipse cx="0" cy="0" rx="100" ry="150" fill="url(#avatar-gradient)" opacity="0.9"/>
    
    <!-- Head -->
    <circle cx="0" cy="-120" r="50" fill="#f8f9fa"/>
    
    <!-- Face features (simplified) -->
    <circle cx="-15" cy="-125" r="5" fill="#212529"/>
    <circle cx="15" cy="-125" r="5" fill="#212529"/>
    <path d="M-15,-105 Q0,-95 15,-105" stroke="#212529" stroke-width="3" fill="none"/>
    
    <!-- Dress/clothing -->
    <path d="M-80,0 Q-100,100 -60,150 L60,150 Q100,100 80,0 Z" fill="url(#dress-gradient)" opacity="0.9"/>
  </g>
  
  <!-- Decorative elements -->
  <circle cx="150" cy="100" r="20" fill="#ffd166" opacity="0.5"/>
  <circle cx="450" cy="400" r="30" fill="#6c63ff" opacity="0.3"/>
  <circle cx="500" cy="150" r="15" fill="#ff6b6b" opacity="0.4"/>
  <circle cx="100" cy="350" r="25" fill="#ffd166" opacity="0.3"/>
  
  <!-- AI elements -->
  <g transform="translate(100, 150)">
    <rect x="0" y="0" width="80" height="40" rx="5" ry="5" fill="#6c63ff" opacity="0.7"/>
    <text x="40" y="25" font-family="Arial" font-size="14" fill="white" text-anchor="middle" dominant-baseline="middle">AI</text>
  </g>
  
  <g transform="translate(450, 200)">
    <rect x="0" y="0" width="80" height="40" rx="5" ry="5" fill="#ff6b6b" opacity="0.7"/>
    <text x="40" y="25" font-family="Arial" font-size="14" fill="white" text-anchor="middle" dominant-baseline="middle">Vogue</text>
  </g>
  
  <!-- Connection lines -->
  <path d="M140,170 L250,170" stroke="#6c63ff" stroke-width="2" stroke-dasharray="5,5"/>
  <path d="M450,220 L350,220" stroke="#ff6b6b" stroke-width="2" stroke-dasharray="5,5"/>
</svg>